<svg width="24" height="25" viewBox="0 0 24 25" fill="none" xmlns="http://www.w3.org/2000/svg">
<path d="M15 23.6041H9C3.57 23.6041 1.25 21.2841 1.25 15.8541V9.85413C1.25 4.42413 3.57 2.10413 9 2.10413H15C20.43 2.10413 22.75 4.42413 22.75 9.85413V15.8541C22.75 21.2841 20.43 23.6041 15 23.6041ZM9 3.60413C4.39 3.60413 2.75 5.24413 2.75 9.85413V15.8541C2.75 20.4641 4.39 22.1041 9 22.1041H15C19.61 22.1041 21.25 20.4641 21.25 15.8541V9.85413C21.25 5.24413 19.61 3.60413 15 3.60413H9Z" fill="#EFF6FF"/>
<path d="M15.5801 20.1041C15.1701 20.1041 14.8301 19.7641 14.8301 19.3541V15.4541C14.8301 15.0441 15.1701 14.7041 15.5801 14.7041C15.9901 14.7041 16.3301 15.0441 16.3301 15.4541V19.3541C16.3301 19.7641 15.9901 20.1041 15.5801 20.1041Z" fill="#EFF6FF"/>
<path d="M15.5801 9.05413C15.1701 9.05413 14.8301 8.71413 14.8301 8.30413V6.35413C14.8301 5.94413 15.1701 5.60413 15.5801 5.60413C15.9901 5.60413 16.3301 5.94413 16.3301 6.35413V8.30413C16.3301 8.71413 15.9901 9.05413 15.5801 9.05413Z" fill="white"/>
<path d="M15.58 14.2541C13.73 14.2541 12.23 12.7541 12.23 10.9041C12.23 9.05414 13.73 7.55414 15.58 7.55414C17.43 7.55414 18.93 9.05414 18.93 10.9041C18.93 12.7541 17.42 14.2541 15.58 14.2541ZM15.58 9.05414C14.56 9.05414 13.73 9.88414 13.73 10.9041C13.73 11.9241 14.56 12.7541 15.58 12.7541C16.6 12.7541 17.43 11.9241 17.43 10.9041C17.43 9.88414 16.59 9.05414 15.58 9.05414Z" fill="white"/>
<path d="M8.41992 20.1041C8.00992 20.1041 7.66992 19.7641 7.66992 19.3541V17.4041C7.66992 16.9941 8.00992 16.6541 8.41992 16.6541C8.82992 16.6541 9.16992 16.9941 9.16992 17.4041V19.3541C9.16992 19.7641 8.83992 20.1041 8.41992 20.1041Z" fill="white"/>
<path d="M8.41992 11.0041C8.00992 11.0041 7.66992 10.6641 7.66992 10.2541V6.35413C7.66992 5.94413 8.00992 5.60413 8.41992 5.60413C8.82992 5.60413 9.16992 5.94413 9.16992 6.35413V10.2541C9.16992 10.6641 8.83992 11.0041 8.41992 11.0041Z" fill="white"/>
<path d="M8.41982 18.1541C6.56982 18.1541 5.06982 16.6541 5.06982 14.8041C5.06982 12.9541 6.56982 11.4541 8.41982 11.4541C10.2698 11.4541 11.7698 12.9541 11.7698 14.8041C11.7698 16.6541 10.2698 18.1541 8.41982 18.1541ZM8.41982 12.9541C7.39982 12.9541 6.56982 13.7841 6.56982 14.8041C6.56982 15.8241 7.39982 16.6541 8.41982 16.6541C9.43982 16.6541 10.2698 15.8241 10.2698 14.8041C10.2698 13.7841 9.44982 12.9541 8.41982 12.9541Z" fill="white"/>
</svg>
