<svg width="41" height="43" viewBox="0 0 41 43" fill="none" xmlns="http://www.w3.org/2000/svg">
<path d="M5.41944 29.223L0.400781 40.7344C0.00450553 41.6419 0.988361 42.5362 1.89395 42.0939L8.66666 38.7843L5.91509 28.6988C5.70018 28.8084 5.52254 28.988 5.41944 29.223Z" fill="#4169DE"/>
<path d="M15.9809 33.3353L6.9312 28.6999C6.59828 28.53 6.22063 28.5432 5.9138 28.6999L8.66537 38.7854L15.9623 35.2203C16.7548 34.8322 16.766 33.7378 15.9809 33.3353Z" fill="#4169DE"/>
<path d="M39.9811 40.8802L35.5562 31.8288L31.8693 39.1808L38.5252 42.2891C39.4507 42.7218 40.4221 41.7829 39.9811 40.8802Z" fill="#122558"/>
<path d="M35.5562 31.8288L22.9351 35.0082L31.8693 39.1808L35.5562 31.8288Z" fill="#182D69"/>
<path d="M35.5562 31.8288C35.4531 31.6178 35.2804 31.4454 35.0655 31.3393L26.9437 27.3223L22.9338 35.0081L35.5562 31.8288Z" fill="#1D3578"/>
<path d="M19.2382 23.5114C19.0158 23.4005 18.8481 23.2269 18.7475 23.022L22.9326 35.0082L26.9425 27.3224L19.2382 23.5114Z" fill="#223B85"/>
<path d="M18.7487 23.022L22.9338 35.0081L14.709 31.1671L18.7487 23.022Z" fill="#25408F"/>
<path d="M7.34487 27.7273C7.10885 27.6164 6.93245 27.4344 6.82934 27.2199L18.7499 23.022L14.7101 31.1671L7.34487 27.7273Z" fill="#29469A"/>
<path d="M6.82934 27.2199C6.69767 26.9463 6.68778 26.6196 6.8294 26.3243L10.2344 19.2278L18.75 23.0207L6.82934 27.2199Z" fill="#2E4EAB"/>
<path d="M13.8505 11.6902L18.7487 23.022L10.2331 19.229L13.8505 11.6902Z" fill="#3253B3"/>
<path d="M18.7487 22.1132C18.6183 22.3807 18.6121 22.6748 18.7102 22.9327L18.7487 23.022C18.7351 22.9931 18.7214 22.9629 18.7102 22.9327L13.8505 11.6902L21.9674 15.5325L18.7487 22.1132Z" fill="#365AC0"/>
<path d="M13.8505 11.6902L25.0047 9.31948L21.9661 15.5313L13.8505 11.6902Z" fill="#395EC8"/>
<path d="M13.8505 11.6902L25.0047 9.31948L16.8754 5.38445L13.8505 11.6902Z" fill="#3D63D3"/>
<path d="M24.9873 8.37581L20.9723 0.880378C20.5549 0.101788 19.3997 0.125893 19.017 0.921356L16.8754 5.38318L25.0047 9.31831C25.1525 9.01941 25.145 8.6711 24.9873 8.37581Z" fill="#4068DC"/>
</svg>
