<svg width="13" height="12" viewBox="0 0 13 12" fill="none" xmlns="http://www.w3.org/2000/svg">
<g id="Arrow - Right 2">
<path id="Arrow - Right 2_2" d="M6.79589 11.8192C7.00838 11.6001 7.02769 11.2571 6.85384 11.0155L6.79589 10.9462L1.99976 6L6.79589 1.05377C7.00838 0.83462 7.02769 0.491687 6.85384 0.250032L6.79589 0.180798C6.5834 -0.0383512 6.25088 -0.0582738 6.01657 0.12103L5.94944 0.180798L0.730288 5.56351C0.517797 5.78266 0.49848 6.1256 0.672336 6.36725L0.730288 6.43649L5.94944 11.8192C6.18318 12.0603 6.56215 12.0603 6.79589 11.8192Z" fill="#BABDCC"/>
<path id="Arrow - Right 2_3" opacity="0.5" d="M12.1426 11.8192C12.3551 11.6001 12.3744 11.2571 12.2005 11.0155L12.1426 10.9462L7.34644 6L12.1426 1.05377C12.3551 0.83462 12.3744 0.491687 12.2005 0.250032L12.1426 0.180798C11.9301 -0.0383512 11.5976 -0.0582738 11.3633 0.12103L11.2961 0.180798L6.07697 5.56351C5.86448 5.78266 5.84516 6.1256 6.01902 6.36725L6.07697 6.43649L11.2961 11.8192C11.5299 12.0603 11.9088 12.0603 12.1426 11.8192Z" fill="#BABDCC"/>
</g>
</svg>
