<svg width="12" height="12" viewBox="0 0 12 12" fill="none" xmlns="http://www.w3.org/2000/svg">
<g id="Arrow - Right 2">
<path id="Arrow - Right 2_2" d="M5.64845 11.8192C5.43596 11.6001 5.41664 11.2571 5.5905 11.0155L5.64845 10.9462L10.4446 6L5.64845 1.05377C5.43596 0.83462 5.41664 0.491687 5.5905 0.250032L5.64845 0.180798C5.86094 -0.0383512 6.19345 -0.0582738 6.42776 0.12103L6.49489 0.180798L11.714 5.56351C11.9265 5.78266 11.9459 6.1256 11.772 6.36725L11.714 6.43649L6.49489 11.8192C6.26115 12.0603 5.88219 12.0603 5.64845 11.8192Z" fill="#12131A"/>
<path id="Arrow - Right 2_3" d="M0.301525 11.8192C0.0890349 11.6001 0.0697176 11.2571 0.243573 11.0155L0.301525 10.9462L5.09765 6L0.301525 1.05377C0.0890349 0.83462 0.0697176 0.491687 0.243573 0.250032L0.301525 0.180798C0.514015 -0.0383512 0.846528 -0.0582738 1.08084 0.12103L1.14797 0.180798L6.36712 5.56351C6.57961 5.78266 6.59893 6.1256 6.42508 6.36725L6.36712 6.43649L1.14797 11.8192C0.914231 12.0603 0.535264 12.0603 0.301525 11.8192Z" fill="#12131A"/>
</g>
</svg>
