<svg width="90" height="24" viewBox="0 0 90 24" fill="none" xmlns="http://www.w3.org/2000/svg">
<path d="M19.9 13.5H4.1C2.6 13.5 2 14.14 2 15.73V19.77C2 21.36 2.6 22 4.1 22H19.9C21.4 22 22 21.36 22 19.77V15.73C22 14.14 21.4 13.5 19.9 13.5Z" stroke="#94A3B8" stroke-width="1.5" stroke-linecap="round" stroke-linejoin="round"/>
<path d="M19.9 2H4.1C2.6 2 2 2.64 2 4.23V8.27C2 9.86 2.6 10.5 4.1 10.5H19.9C21.4 10.5 22 9.86 22 8.27V4.23C22 2.64 21.4 2 19.9 2Z" stroke="#94A3B8" stroke-width="1.5" stroke-linecap="round" stroke-linejoin="round"/>
<path d="M37.176 17V7.326H38.296V15.992H42.524V17H37.176ZM43.6935 17V10H44.7715V17H43.6935ZM43.6935 8.46V7.2H44.7715V8.46H43.6935ZM48.9674 17.14C48.7527 17.14 48.4914 17.126 48.1834 17.098C47.8847 17.07 47.5861 17.0373 47.2874 17C46.9887 16.9533 46.7227 16.9113 46.4894 16.874L46.5454 15.936C46.7787 15.964 47.0401 15.9967 47.3294 16.034C47.6281 16.0713 47.9174 16.104 48.1974 16.132C48.4774 16.1507 48.7014 16.16 48.8694 16.16C49.2521 16.16 49.5694 16.1273 49.8214 16.062C50.0734 15.9873 50.2647 15.866 50.3954 15.698C50.5261 15.53 50.5914 15.292 50.5914 14.984C50.5914 14.7507 50.5401 14.5687 50.4374 14.438C50.3441 14.3073 50.1621 14.2 49.8914 14.116C49.6301 14.032 49.2474 13.9527 48.7434 13.878C48.2207 13.794 47.7821 13.6913 47.4274 13.57C47.0821 13.4393 46.8254 13.248 46.6574 12.996C46.4894 12.744 46.4054 12.3847 46.4054 11.918C46.4054 11.3953 46.5267 10.9847 46.7694 10.686C47.0121 10.3873 47.3247 10.1773 47.7074 10.056C48.0994 9.92533 48.5054 9.86 48.9254 9.86C49.1867 9.86 49.4714 9.874 49.7794 9.902C50.0967 9.93 50.4047 9.96733 50.7034 10.014C51.0021 10.0513 51.2587 10.0887 51.4734 10.126L51.4454 11.064C51.2214 11.0267 50.9601 10.994 50.6614 10.966C50.3627 10.9287 50.0641 10.9007 49.7654 10.882C49.4667 10.854 49.2054 10.84 48.9814 10.84C48.7014 10.84 48.4494 10.8727 48.2254 10.938C48.0014 10.994 47.8241 11.0967 47.6934 11.246C47.5627 11.3953 47.4974 11.6053 47.4974 11.876C47.4974 12.0813 47.5441 12.2493 47.6374 12.38C47.7307 12.5013 47.9081 12.604 48.1694 12.688C48.4307 12.772 48.8087 12.856 49.3034 12.94C49.8821 13.0333 50.3441 13.15 50.6894 13.29C51.0441 13.43 51.3007 13.626 51.4594 13.878C51.6181 14.13 51.6974 14.4847 51.6974 14.942C51.6974 15.4833 51.5854 15.9173 51.3614 16.244C51.1467 16.5613 50.8341 16.79 50.4234 16.93C50.0221 17.07 49.5367 17.14 48.9674 17.14ZM55.6009 17.154C55.1155 17.154 54.7282 17.0793 54.4389 16.93C54.1589 16.7807 53.9582 16.524 53.8369 16.16C53.7155 15.7867 53.6549 15.264 53.6549 14.592V10.938H52.6609V10H53.6549V7.858H54.7329V10H56.9309V10.938H54.7329V14.27C54.7329 14.7647 54.7515 15.152 54.7889 15.432C54.8355 15.7027 54.9289 15.894 55.0689 16.006C55.2089 16.118 55.4282 16.174 55.7269 16.174C55.8202 16.174 55.9415 16.1693 56.0909 16.16C56.2402 16.1507 56.3895 16.1413 56.5389 16.132C56.6975 16.1133 56.8375 16.0993 56.9589 16.09L57.0289 17C56.8982 17.0187 56.7442 17.0373 56.5669 17.056C56.3895 17.084 56.2122 17.1073 56.0349 17.126C55.8669 17.1447 55.7222 17.154 55.6009 17.154ZM63.1373 17L60.6173 7.326H61.7793L63.9772 16.006H64.7473L66.9453 7.326H68.1073L65.6013 17H63.1373ZM69.4514 17V10H70.5294V17H69.4514ZM69.4514 8.46V7.2H70.5294V8.46H69.4514ZM75.0192 17.14C74.3192 17.14 73.7639 17.0047 73.3532 16.734C72.9519 16.4633 72.6625 16.062 72.4852 15.53C72.3079 14.998 72.2192 14.3353 72.2192 13.542C72.2192 12.6553 72.3405 11.946 72.5832 11.414C72.8259 10.8727 73.1665 10.4807 73.6052 10.238C74.0439 9.986 74.5619 9.86 75.1592 9.86C76.0925 9.86 76.7972 10.1213 77.2732 10.644C77.7492 11.1573 77.9872 11.988 77.9872 13.136L77.9312 13.962H73.3252C73.3345 14.69 73.4699 15.2407 73.7312 15.614C73.9925 15.9873 74.4639 16.174 75.1452 16.174C75.4065 16.174 75.6912 16.1693 75.9992 16.16C76.3165 16.1413 76.6292 16.1227 76.9372 16.104C77.2452 16.0853 77.5065 16.0667 77.7212 16.048L77.7492 16.902C77.5252 16.9393 77.2499 16.9767 76.9232 17.014C76.6059 17.0513 76.2792 17.0793 75.9432 17.098C75.6072 17.126 75.2992 17.14 75.0192 17.14ZM73.3252 13.08H76.8952C76.8952 12.2213 76.7552 11.624 76.4752 11.288C76.2045 10.9427 75.7659 10.77 75.1592 10.77C74.7672 10.77 74.4359 10.8493 74.1652 11.008C73.8945 11.1573 73.6845 11.4 73.5352 11.736C73.3952 12.072 73.3252 12.52 73.3252 13.08ZM80.6329 17L78.9809 10H80.0729L81.4449 16.062H81.6829L83.3209 10.14H84.4549L86.0929 16.062H86.3309L87.7029 10H88.7949L87.1429 17H85.3369L83.8809 11.582L82.4389 17H80.6329Z" fill="#94A3B8"/>
</svg>
