<svg width="24" height="25" viewBox="0 0 24 25" fill="none" xmlns="http://www.w3.org/2000/svg">
<path d="M16.0002 23.6041H8.00023C3.38023 23.6041 2.52023 21.4541 2.30023 19.3641L1.55023 11.3541C1.44023 10.3041 1.41023 8.7541 2.45023 7.5941C3.35023 6.5941 4.84023 6.11411 7.00023 6.11411H17.0002C19.1702 6.11411 20.6602 6.6041 21.5502 7.5941C22.5902 8.7541 22.5602 10.3041 22.4502 11.3641L21.7002 19.3541C21.4802 21.4541 20.6202 23.6041 16.0002 23.6041ZM7.00023 7.6041C5.31023 7.6041 4.15023 7.9341 3.56023 8.5941C3.07023 9.1341 2.91023 9.96411 3.04023 11.2041L3.79023 19.2141C3.96023 20.7941 4.39023 22.1041 8.00023 22.1041H16.0002C19.6002 22.1041 20.0402 20.7941 20.2102 19.2041L20.9602 11.2141C21.0902 9.9641 20.9302 9.1341 20.4402 8.5941C19.8502 7.9341 18.6902 7.6041 17.0002 7.6041H7.00023Z" fill="#EFF6FF"/>
<path d="M16 7.6041C15.59 7.6041 15.25 7.2641 15.25 6.8541V6.0541C15.25 4.2741 15.25 3.6041 12.8 3.6041H11.2C8.75 3.6041 8.75 4.2741 8.75 6.0541V6.8541C8.75 7.2641 8.41 7.6041 8 7.6041C7.59 7.6041 7.25 7.2641 7.25 6.8541V6.0541C7.25 4.2941 7.25 2.1041 11.2 2.1041H12.8C16.75 2.1041 16.75 4.2941 16.75 6.0541V6.8541C16.75 7.2641 16.41 7.6041 16 7.6041Z" fill="#EFF6FF"/>
<path d="M12 17.6041C9.25 17.6041 9.25 15.9041 9.25 14.8841V13.8541C9.25 12.4441 9.59 12.1041 11 12.1041H13C14.41 12.1041 14.75 12.4441 14.75 13.8541V14.8541C14.75 15.8941 14.75 17.6041 12 17.6041ZM10.75 13.6041C10.75 13.6841 10.75 13.7741 10.75 13.8541V14.8841C10.75 15.9141 10.75 16.1041 12 16.1041C13.25 16.1041 13.25 15.9441 13.25 14.8741V13.8541C13.25 13.7741 13.25 13.6841 13.25 13.6041C13.17 13.6041 13.08 13.6041 13 13.6041H11C10.92 13.6041 10.83 13.6041 10.75 13.6041Z" fill="#EFF6FF"/>
<path d="M14 15.6241C13.63 15.6241 13.3 15.3441 13.26 14.9641C13.21 14.5541 13.5 14.1741 13.91 14.1241C16.55 13.7941 19.08 12.7941 21.21 11.2441C21.54 10.9941 22.01 11.0741 22.26 11.4141C22.5 11.7441 22.43 12.2141 22.09 12.4641C19.75 14.1641 16.99 15.2541 14.09 15.6241C14.06 15.6241 14.03 15.6241 14 15.6241Z" fill="#EFF6FF"/>
<path d="M10.0002 15.6341C9.97023 15.6341 9.94023 15.6341 9.91023 15.6341C7.17023 15.3241 4.50023 14.3241 2.19023 12.7441C1.85023 12.5141 1.76023 12.0441 1.99023 11.7041C2.22023 11.3641 2.69023 11.2741 3.03023 11.5041C5.14023 12.9441 7.57023 13.8541 10.0702 14.1441C10.4802 14.1941 10.7802 14.5641 10.7302 14.9741C10.7002 15.3541 10.3802 15.6341 10.0002 15.6341Z" fill="#EFF6FF"/>
</svg>
