<svg width="21" height="20" viewBox="0 0 21 20" fill="none" xmlns="http://www.w3.org/2000/svg">
<path d="M14.6667 18.9584H6.33342C2.65841 18.9584 1.54175 17.8417 1.54175 14.1667V5.83335C1.54175 2.15835 2.65841 1.04169 6.33342 1.04169H7.58342C9.04175 1.04169 9.50008 1.51669 10.0834 2.29169L11.3334 3.95835C11.6084 4.32502 11.6501 4.37502 12.1667 4.37502H14.6667C18.3417 4.37502 19.4584 5.49169 19.4584 9.16669V14.1667C19.4584 17.8417 18.3417 18.9584 14.6667 18.9584ZM6.33342 2.29169C3.35008 2.29169 2.79175 2.85835 2.79175 5.83335V14.1667C2.79175 17.1417 3.35008 17.7084 6.33342 17.7084H14.6667C17.6501 17.7084 18.2084 17.1417 18.2084 14.1667V9.16669C18.2084 6.19169 17.6501 5.62502 14.6667 5.62502H12.1667C11.1001 5.62502 10.7501 5.25835 10.3334 4.70835L9.08342 3.04169C8.65008 2.46669 8.51675 2.29169 7.58342 2.29169H6.33342Z" fill="#292D32"/>
<path d="M17.1667 5.94169C16.8251 5.94169 16.5417 5.65835 16.5417 5.31669V4.16669C16.5417 2.85002 15.9834 2.29169 14.6667 2.29169H7.16675C6.82508 2.29169 6.54175 2.00835 6.54175 1.66669C6.54175 1.32502 6.82508 1.04169 7.16675 1.04169H14.6667C16.6834 1.04169 17.7917 2.15002 17.7917 4.16669V5.31669C17.7917 5.65835 17.5084 5.94169 17.1667 5.94169Z" fill="#292D32"/>
</svg>
