<svg width="222" height="122" viewBox="0 0 222 122" fill="none" xmlns="http://www.w3.org/2000/svg">
<g clip-path="url(#clip0_426_2809)">
<path d="M0.5 12.8C0.5 8.31958 0.5 6.07937 1.37195 4.36808C2.13893 2.86278 3.36278 1.63893 4.86808 0.871948C6.57937 0 8.81958 0 13.3 0H209.2C213.68 0 215.921 0 217.632 0.871948C219.137 1.63893 220.361 2.86278 221.128 4.36808C222 6.07937 222 8.31958 222 12.8V109.2C222 113.68 222 115.921 221.128 117.632C220.361 119.137 219.137 120.361 217.632 121.128C215.921 122 213.68 122 209.2 122H13.3C8.81958 122 6.57937 122 4.86808 121.128C3.36278 120.361 2.13893 119.137 1.37195 117.632C0.5 115.921 0.5 113.68 0.5 109.2V12.8Z" fill="#F1F5F9"/>
<g opacity="0.09">
<line x1="-47.5" y1="88.8646" x2="290.57" y2="88.8646" stroke="#222020" stroke-width="0.28196"/>
<line x1="-47.5" y1="16.6828" x2="290.57" y2="16.6828" stroke="#222020" stroke-width="0.28196"/>
<line x1="-47.5" y1="52.7734" x2="290.57" y2="52.7734" stroke="#222020" stroke-width="0.28196"/>
<line x1="-47.5" y1="70.819" x2="290.57" y2="70.819" stroke="#222020" stroke-width="0.28196"/>
<line x1="-47.5" y1="34.7279" x2="290.57" y2="34.7279" stroke="#222020" stroke-width="0.28196"/>
<line x1="-47.5" y1="106.91" x2="290.57" y2="106.91" stroke="#222020" stroke-width="0.28196"/>
<line x1="107.438" y1="-61.8432" x2="107.438" y2="199.252" stroke="#222020" stroke-width="0.28196"/>
<line x1="35.2552" y1="-61.8432" x2="35.2552" y2="199.252" stroke="#222020" stroke-width="0.28196"/>
<line x1="179.619" y1="-61.8432" x2="179.619" y2="199.252" stroke="#222020" stroke-width="0.28196"/>
<line x1="143.528" y1="-61.8432" x2="143.528" y2="199.252" stroke="#222020" stroke-width="0.28196"/>
<line x1="71.347" y1="-61.8432" x2="71.347" y2="199.252" stroke="#222020" stroke-width="0.28196"/>
<line x1="215.71" y1="-61.8432" x2="215.71" y2="199.252" stroke="#222020" stroke-width="0.28196"/>
<line x1="125.483" y1="-61.8432" x2="125.483" y2="199.252" stroke="#222020" stroke-width="0.28196"/>
<line x1="53.3009" y1="-61.8432" x2="53.3009" y2="199.252" stroke="#222020" stroke-width="0.28196"/>
<line x1="197.665" y1="-61.8432" x2="197.665" y2="199.252" stroke="#222020" stroke-width="0.28196"/>
<line x1="17.2108" y1="-61.8432" x2="17.2108" y2="199.252" stroke="#222020" stroke-width="0.28196"/>
<line x1="161.575" y1="-61.8432" x2="161.575" y2="199.252" stroke="#222020" stroke-width="0.28196"/>
<line x1="89.3917" y1="-61.8432" x2="89.3917" y2="199.252" stroke="#222020" stroke-width="0.28196"/>
</g>
<g opacity="0.5">
<rect x="215.826" y="-1.17072" width="17.9429" height="17.6866" fill="#D9AB52" fill-opacity="0.25"/>
<rect x="71.2573" y="52.9032" width="17.9429" height="17.6866" fill="#D9AB52" fill-opacity="0.15"/>
<rect x="197.626" y="16.7723" width="17.9429" height="17.6866" fill="#D9AB52" fill-opacity="0.25"/>
<rect x="53.2812" y="-1.17072" width="17.9429" height="17.6866" fill="#D9AB52" fill-opacity="0.15"/>
<rect x="197.626" y="-1.17072" width="17.9429" height="17.6866" fill="#D9AB52" fill-opacity="0.25"/>
<rect x="53.2812" y="52.9032" width="17.9429" height="17.6866" fill="#D9AB52" fill-opacity="0.15"/>
<rect x="-0.77124" y="107" width="17.9429" height="17.9429" fill="#D9AB52" fill-opacity="0.2"/>
<rect x="-0.770996" y="16.516" width="17.9429" height="18.1993" fill="#D9AB52" fill-opacity="0.2"/>
<rect x="215.826" y="107" width="17.9429" height="17.9429" fill="#D9AB52" fill-opacity="0.15"/>
</g>
<path d="M107.573 100.964L82.0847 159.425C80.0722 164.034 85.0688 168.576 89.668 166.33L124.064 149.522L110.09 98.3009C108.998 98.858 108.096 99.77 107.573 100.964Z" fill="#4169DE"/>
<path d="M161.211 121.848L115.25 98.3067C113.56 97.4436 111.642 97.511 110.083 98.3067L124.058 149.527L161.116 131.421C165.141 129.45 165.198 123.893 161.211 121.848Z" fill="#4169DE"/>
<path d="M283.099 160.166L260.626 114.197L241.902 151.535L275.705 167.321C280.405 169.519 285.338 164.751 283.099 160.166Z" fill="#122558"/>
<path d="M260.626 114.197L196.528 130.344L241.902 151.535L260.626 114.197Z" fill="#182D69"/>
<path d="M260.626 114.197C260.103 113.126 259.226 112.25 258.134 111.712L216.887 91.3102L196.522 130.344L260.626 114.197Z" fill="#1D3578"/>
<path d="M177.753 71.956C176.624 71.3929 175.772 70.5115 175.261 69.4709L196.516 130.344L216.881 91.3107L177.753 71.956Z" fill="#223B85"/>
<path d="M175.267 69.4709L196.522 130.344L154.751 110.837L175.267 69.4709Z" fill="#25408F"/>
<path d="M117.351 93.3673C116.153 92.8042 115.257 91.8799 114.733 90.7904L175.273 69.4709L154.757 110.837L117.351 93.3673Z" fill="#29469A"/>
<path d="M114.733 90.7904C114.064 89.4009 114.014 87.7417 114.733 86.2421L132.026 50.2015L175.273 69.4644L114.733 90.7904Z" fill="#2E4EAB"/>
<path d="M150.391 11.9206L175.267 69.4709L132.02 50.2076L150.391 11.9206Z" fill="#3253B3"/>
<path d="M175.267 64.8551C174.605 66.214 174.573 67.7075 175.072 69.0174L175.267 69.4709C175.198 69.324 175.128 69.1704 175.072 69.0174L150.391 11.9206L191.614 31.4344L175.267 64.8551Z" fill="#365AC0"/>
<path d="M150.391 11.9206L207.039 -0.119316L191.607 31.4284L150.391 11.9206Z" fill="#395EC8"/>
<path d="M150.391 11.9206L207.039 -0.119316L165.753 -20.1039L150.391 11.9206Z" fill="#3D63D3"/>
<path d="M206.95 -4.91189L186.56 -42.9785C184.44 -46.9326 178.573 -46.8102 176.63 -42.7703L165.753 -20.1104L207.039 -0.125259C207.79 -1.64327 207.752 -3.41224 206.95 -4.91189Z" fill="#4068DC"/>
<path d="M18.382 54V44.438H20.314V48.47L21.518 48.442L23.422 44.438H25.438L23.184 49.17L25.592 54H23.52L21.532 50.178L20.314 50.206V54H18.382ZM26.4595 54V46.972H28.3215V47.42C28.4708 47.3267 28.6528 47.238 28.8675 47.154C29.0821 47.0607 29.3061 46.9813 29.5395 46.916C29.7821 46.8507 30.0155 46.818 30.2395 46.818C30.7248 46.818 31.1261 46.8833 31.4435 47.014C31.7701 47.1353 32.0268 47.336 32.2135 47.616C32.4001 47.896 32.5355 48.2647 32.6195 48.722C32.7035 49.17 32.7455 49.716 32.7455 50.36V54H30.8695V50.458C30.8695 49.9727 30.8415 49.5853 30.7855 49.296C30.7295 48.9973 30.6221 48.7827 30.4635 48.652C30.3048 48.5213 30.0715 48.456 29.7635 48.456C29.5955 48.456 29.4181 48.4747 29.2315 48.512C29.0541 48.54 28.8815 48.582 28.7135 48.638C28.5548 48.694 28.4241 48.75 28.3215 48.806V54H26.4595ZM37.2217 54.154C36.4284 54.154 35.7891 54.0233 35.3037 53.762C34.8277 53.5007 34.4824 53.0993 34.2677 52.558C34.0531 52.0073 33.9457 51.298 33.9457 50.43C33.9457 49.59 34.0577 48.9087 34.2817 48.386C34.5057 47.854 34.8604 47.462 35.3457 47.21C35.8311 46.9487 36.4564 46.818 37.2217 46.818C37.9964 46.818 38.6217 46.9487 39.0977 47.21C39.5831 47.462 39.9377 47.854 40.1617 48.386C40.3951 48.9087 40.5117 49.59 40.5117 50.43C40.5117 51.298 40.4044 52.0073 40.1897 52.558C39.9751 53.0993 39.6251 53.5007 39.1397 53.762C38.6637 54.0233 38.0244 54.154 37.2217 54.154ZM37.2217 52.614C37.6137 52.614 37.9077 52.544 38.1037 52.404C38.2997 52.2547 38.4304 52.0213 38.4957 51.704C38.5704 51.3773 38.6077 50.9527 38.6077 50.43C38.6077 49.9167 38.5657 49.5107 38.4817 49.212C38.3977 48.904 38.2577 48.6847 38.0617 48.554C37.8657 48.4233 37.5857 48.358 37.2217 48.358C36.8671 48.358 36.5871 48.4233 36.3817 48.554C36.1857 48.6847 36.0457 48.904 35.9617 49.212C35.8777 49.5107 35.8357 49.9167 35.8357 50.43C35.8357 50.9527 35.8684 51.3773 35.9337 51.704C36.0084 52.0213 36.1437 52.2547 36.3397 52.404C36.5357 52.544 36.8297 52.614 37.2217 52.614ZM42.5996 54L41.2556 46.972H43.2436L44.1536 52.418H44.3636L45.4976 47.126H47.2896L48.4656 52.418H48.6756L49.5856 46.972H51.4476L50.1456 54H47.3316L46.3376 49.478L45.3436 54H42.5996ZM52.6014 54V44.102H54.4634V54H52.6014ZM58.9011 54.154C58.1264 54.154 57.5104 54.0233 57.0531 53.762C56.6051 53.5007 56.2831 53.104 56.0871 52.572C55.8911 52.04 55.7931 51.3727 55.7931 50.57C55.7931 49.702 55.9144 48.9927 56.1571 48.442C56.4091 47.8913 56.7731 47.4853 57.2491 47.224C57.7251 46.9533 58.3131 46.818 59.0131 46.818C60.0491 46.818 60.8284 47.0793 61.3511 47.602C61.8831 48.1247 62.1491 48.9507 62.1491 50.08L62.0651 51.116H57.6691C57.6784 51.6387 57.7857 52.0307 57.9911 52.292C58.1964 52.5533 58.5511 52.684 59.0551 52.684C59.3444 52.684 59.6617 52.6793 60.0071 52.67C60.3524 52.6513 60.6931 52.6327 61.0291 52.614C61.3744 52.5953 61.6684 52.5767 61.9111 52.558L61.9531 53.86C61.7197 53.8973 61.4257 53.9393 61.0711 53.986C60.7164 54.0327 60.3477 54.07 59.9651 54.098C59.5917 54.1353 59.2371 54.154 58.9011 54.154ZM57.6691 49.926H60.2871C60.2871 49.2913 60.1844 48.848 59.9791 48.596C59.7831 48.344 59.4611 48.218 59.0131 48.218C58.7144 48.218 58.4671 48.274 58.2711 48.386C58.0751 48.498 57.9257 48.68 57.8231 48.932C57.7204 49.184 57.6691 49.5153 57.6691 49.926ZM65.7532 54.154C65.4172 54.154 65.1092 54.112 64.8292 54.028C64.5492 53.9533 64.3019 53.832 64.0872 53.664C63.8819 53.4867 63.7045 53.258 63.5552 52.978C63.4152 52.698 63.3079 52.3573 63.2332 51.956C63.1585 51.5453 63.1212 51.0693 63.1212 50.528C63.1212 49.7253 63.2192 49.0487 63.4152 48.498C63.6205 47.9473 63.9425 47.532 64.3812 47.252C64.8199 46.9627 65.4032 46.818 66.1312 46.818C66.2712 46.818 66.4345 46.8273 66.6212 46.846C66.8079 46.8553 66.9899 46.874 67.1672 46.902C67.3445 46.9207 67.4892 46.9393 67.6012 46.958V44.102H69.4772V54H67.6292L67.6152 53.594C67.4845 53.6687 67.3119 53.7527 67.0972 53.846C66.8919 53.93 66.6725 54 66.4392 54.056C66.2059 54.1213 65.9772 54.154 65.7532 54.154ZM66.2292 52.586C66.3972 52.586 66.5652 52.5673 66.7332 52.53C66.9105 52.4927 67.0739 52.4507 67.2232 52.404C67.3819 52.348 67.5079 52.2967 67.6012 52.25V48.484C67.5172 48.4653 67.4052 48.4513 67.2652 48.442C67.1252 48.4233 66.9805 48.4093 66.8312 48.4C66.6819 48.3813 66.5465 48.372 66.4252 48.372C66.0612 48.372 65.7765 48.456 65.5712 48.624C65.3752 48.792 65.2352 49.0393 65.1512 49.366C65.0672 49.6833 65.0252 50.0707 65.0252 50.528C65.0252 50.9293 65.0532 51.2653 65.1092 51.536C65.1652 51.7973 65.2445 52.0073 65.3472 52.166C65.4592 52.3153 65.5899 52.4227 65.7392 52.488C65.8885 52.5533 66.0519 52.586 66.2292 52.586ZM74.1101 57.206C73.3634 57.206 72.7381 57.15 72.2341 57.038C71.7394 56.926 71.3661 56.7207 71.1141 56.422C70.8621 56.1327 70.7361 55.7127 70.7361 55.162C70.7361 54.9193 70.7688 54.7 70.8341 54.504C70.9088 54.3173 71.0208 54.14 71.1701 53.972C71.3288 53.804 71.5248 53.6313 71.7581 53.454C71.6274 53.3607 71.5201 53.2253 71.4361 53.048C71.3614 52.8613 71.3241 52.6607 71.3241 52.446C71.3241 52.3713 71.3568 52.2733 71.4221 52.152C71.4874 52.0213 71.5668 51.886 71.6601 51.746C71.7534 51.606 71.8421 51.48 71.9261 51.368C71.7394 51.284 71.5621 51.1627 71.3941 51.004C71.2261 50.836 71.0861 50.612 70.9741 50.332C70.8714 50.052 70.8201 49.6927 70.8201 49.254C70.8201 48.6567 70.9321 48.1807 71.1561 47.826C71.3894 47.4713 71.7254 47.2147 72.1641 47.056C72.6028 46.8973 73.1348 46.818 73.7601 46.818C74.0028 46.818 74.2641 46.8367 74.5441 46.874C74.8241 46.9113 75.0481 46.9487 75.2161 46.986L77.4981 46.944V48.204L76.4341 48.19C76.5181 48.302 76.5928 48.4467 76.6581 48.624C76.7328 48.792 76.7701 49.002 76.7701 49.254C76.7701 49.898 76.6581 50.3973 76.4341 50.752C76.2194 51.1067 75.8928 51.354 75.4541 51.494C75.0154 51.6247 74.4601 51.69 73.7881 51.69C73.7134 51.69 73.6108 51.6853 73.4801 51.676C73.3494 51.6573 73.2421 51.6433 73.1581 51.634C73.1208 51.7273 73.0834 51.8347 73.0461 51.956C73.0088 52.068 72.9901 52.1473 72.9901 52.194C72.9901 52.2967 73.0088 52.376 73.0461 52.432C73.0928 52.488 73.1721 52.5347 73.2841 52.572C73.4054 52.6 73.5781 52.6187 73.8021 52.628C74.0354 52.6373 74.3434 52.642 74.7261 52.642C75.3888 52.642 75.9161 52.7027 76.3081 52.824C76.7094 52.9453 76.9941 53.16 77.1621 53.468C77.3301 53.776 77.4141 54.21 77.4141 54.77C77.4141 55.6007 77.1201 56.212 76.5321 56.604C75.9534 57.0053 75.1461 57.206 74.1101 57.206ZM74.0121 55.82C74.5908 55.82 75.0061 55.75 75.2581 55.61C75.5194 55.4793 75.6501 55.26 75.6501 54.952C75.6501 54.7093 75.6034 54.532 75.5101 54.42C75.4261 54.308 75.2814 54.2333 75.0761 54.196C74.8708 54.168 74.5908 54.154 74.2361 54.154C74.1428 54.154 74.0308 54.1493 73.9001 54.14C73.7694 54.14 73.6341 54.1353 73.4941 54.126C73.3634 54.126 73.2421 54.1213 73.1301 54.112C73.0274 54.1027 72.9528 54.098 72.9061 54.098C72.7754 54.1913 72.6681 54.28 72.5841 54.364C72.5094 54.448 72.4534 54.532 72.4161 54.616C72.3881 54.7093 72.3741 54.8213 72.3741 54.952C72.3741 55.1667 72.4254 55.3347 72.5281 55.456C72.6308 55.5867 72.7988 55.68 73.0321 55.736C73.2748 55.792 73.6014 55.82 74.0121 55.82ZM73.7741 50.374C74.2034 50.374 74.5068 50.29 74.6841 50.122C74.8708 49.9447 74.9641 49.6553 74.9641 49.254C74.9641 48.8527 74.8708 48.5633 74.6841 48.386C74.5068 48.2087 74.2034 48.12 73.7741 48.12C73.3634 48.12 73.0648 48.2087 72.8781 48.386C72.7008 48.5633 72.6121 48.8527 72.6121 49.254C72.6121 49.6553 72.7008 49.9447 72.8781 50.122C73.0648 50.29 73.3634 50.374 73.7741 50.374ZM81.2136 54.154C80.4389 54.154 79.8229 54.0233 79.3656 53.762C78.9176 53.5007 78.5956 53.104 78.3996 52.572C78.2036 52.04 78.1056 51.3727 78.1056 50.57C78.1056 49.702 78.2269 48.9927 78.4696 48.442C78.7216 47.8913 79.0856 47.4853 79.5616 47.224C80.0376 46.9533 80.6256 46.818 81.3256 46.818C82.3616 46.818 83.1409 47.0793 83.6636 47.602C84.1956 48.1247 84.4616 48.9507 84.4616 50.08L84.3776 51.116H79.9816C79.9909 51.6387 80.0982 52.0307 80.3036 52.292C80.5089 52.5533 80.8636 52.684 81.3676 52.684C81.6569 52.684 81.9742 52.6793 82.3196 52.67C82.6649 52.6513 83.0056 52.6327 83.3416 52.614C83.6869 52.5953 83.9809 52.5767 84.2236 52.558L84.2656 53.86C84.0322 53.8973 83.7382 53.9393 83.3836 53.986C83.0289 54.0327 82.6602 54.07 82.2776 54.098C81.9042 54.1353 81.5496 54.154 81.2136 54.154ZM79.9816 49.926H82.5996C82.5996 49.2913 82.4969 48.848 82.2916 48.596C82.0956 48.344 81.7736 48.218 81.3256 48.218C81.0269 48.218 80.7796 48.274 80.5836 48.386C80.3876 48.498 80.2382 48.68 80.1356 48.932C80.0329 49.184 79.9816 49.5153 79.9816 49.926ZM88.8605 54V44.438H92.6685C93.3032 44.438 93.8492 44.5173 94.3065 44.676C94.7638 44.8347 95.1185 45.0913 95.3705 45.446C95.6318 45.7913 95.7625 46.258 95.7625 46.846C95.7625 47.2473 95.7205 47.588 95.6365 47.868C95.5618 48.1387 95.4405 48.372 95.2725 48.568C95.1138 48.7547 94.9038 48.9273 94.6425 49.086C94.9225 49.1887 95.1652 49.3287 95.3705 49.506C95.5852 49.674 95.7485 49.9027 95.8605 50.192C95.9725 50.472 96.0285 50.8453 96.0285 51.312C96.0285 51.8253 95.9492 52.2547 95.7905 52.6C95.6318 52.9453 95.4032 53.2207 95.1045 53.426C94.8152 53.6313 94.4745 53.7807 94.0825 53.874C93.6905 53.958 93.2612 54 92.7945 54H88.8605ZM90.7925 52.572H92.6545C92.9812 52.572 93.2518 52.5347 93.4665 52.46C93.6905 52.376 93.8585 52.2313 93.9705 52.026C94.0918 51.8207 94.1525 51.536 94.1525 51.172C94.1525 50.892 94.1058 50.6633 94.0125 50.486C93.9192 50.3087 93.7978 50.178 93.6485 50.094C93.4992 50.0007 93.3312 49.9353 93.1445 49.898C92.9672 49.8607 92.7898 49.842 92.6125 49.842H90.7925V52.572ZM90.7925 48.47H92.5985C92.9158 48.47 93.1725 48.4233 93.3685 48.33C93.5645 48.2273 93.7092 48.078 93.8025 47.882C93.8958 47.6767 93.9425 47.42 93.9425 47.112C93.9425 46.6733 93.8258 46.356 93.5925 46.16C93.3685 45.964 93.0138 45.866 92.5285 45.866H90.7925V48.47ZM99.1548 54.154C98.4268 54.154 97.8761 53.972 97.5028 53.608C97.1388 53.2347 96.9568 52.6747 96.9568 51.928C96.9568 51.4053 97.0501 50.9993 97.2368 50.71C97.4234 50.4113 97.6988 50.1967 98.0628 50.066C98.4361 49.926 98.8888 49.842 99.4208 49.814L101.129 49.66V49.24C101.129 48.904 101.045 48.6707 100.877 48.54C100.709 48.4 100.461 48.33 100.135 48.33C99.8734 48.33 99.5701 48.3393 99.2248 48.358C98.8888 48.3767 98.5528 48.4 98.2168 48.428C97.8901 48.456 97.6054 48.484 97.3628 48.512L97.3068 47.196C97.5494 47.14 97.8388 47.084 98.1748 47.028C98.5201 46.9627 98.8794 46.9113 99.2528 46.874C99.6261 46.8367 99.9714 46.818 100.289 46.818C100.886 46.818 101.385 46.8927 101.787 47.042C102.188 47.1913 102.491 47.4387 102.697 47.784C102.902 48.12 103.005 48.5773 103.005 49.156V52.362C103.023 52.4927 103.093 52.5953 103.215 52.67C103.336 52.7353 103.476 52.782 103.635 52.81L103.593 54.098C103.443 54.098 103.294 54.098 103.145 54.098C103.005 54.1073 102.869 54.1073 102.739 54.098C102.608 54.098 102.491 54.0887 102.389 54.07C102.174 54.042 101.987 53.986 101.829 53.902C101.679 53.818 101.558 53.7293 101.465 53.636C101.315 53.7013 101.115 53.776 100.863 53.86C100.611 53.944 100.335 54.014 100.037 54.07C99.7474 54.126 99.4534 54.154 99.1548 54.154ZM99.6028 52.768C99.7801 52.768 99.9668 52.7493 100.163 52.712C100.359 52.6747 100.541 52.6327 100.709 52.586C100.886 52.53 101.026 52.4787 101.129 52.432V50.822L99.7008 50.948C99.3928 50.976 99.1688 51.0693 99.0288 51.228C98.8981 51.3773 98.8328 51.592 98.8328 51.872C98.8328 52.152 98.8934 52.3713 99.0148 52.53C99.1454 52.6887 99.3414 52.768 99.6028 52.768ZM107.183 54.154C106.875 54.154 106.544 54.1353 106.189 54.098C105.844 54.07 105.517 54.0327 105.209 53.986C104.91 53.9393 104.654 53.8927 104.439 53.846L104.495 52.46C104.738 52.488 105.008 52.5207 105.307 52.558C105.615 52.5953 105.914 52.628 106.203 52.656C106.502 52.6747 106.744 52.684 106.931 52.684C107.211 52.684 107.44 52.6607 107.617 52.614C107.804 52.5673 107.944 52.4927 108.037 52.39C108.13 52.278 108.177 52.1193 108.177 51.914C108.177 51.7553 108.135 51.634 108.051 51.55C107.976 51.466 107.827 51.396 107.603 51.34C107.388 51.2747 107.071 51.2093 106.651 51.144C106.128 51.0693 105.694 50.962 105.349 50.822C105.013 50.682 104.766 50.4767 104.607 50.206C104.448 49.926 104.369 49.548 104.369 49.072C104.369 48.4933 104.495 48.0407 104.747 47.714C104.999 47.3873 105.335 47.1587 105.755 47.028C106.175 46.888 106.632 46.818 107.127 46.818C107.454 46.818 107.79 46.8367 108.135 46.874C108.48 46.902 108.807 46.9393 109.115 46.986C109.423 47.0327 109.68 47.0793 109.885 47.126L109.829 48.54C109.596 48.5027 109.325 48.47 109.017 48.442C108.709 48.4047 108.401 48.3767 108.093 48.358C107.794 48.3393 107.542 48.33 107.337 48.33C107.122 48.33 106.931 48.3533 106.763 48.4C106.595 48.4373 106.464 48.5027 106.371 48.596C106.287 48.6893 106.245 48.8293 106.245 49.016C106.245 49.1467 106.282 49.254 106.357 49.338C106.432 49.422 106.572 49.4967 106.777 49.562C106.992 49.618 107.3 49.674 107.701 49.73C108.28 49.814 108.742 49.9307 109.087 50.08C109.432 50.2293 109.68 50.444 109.829 50.724C109.988 51.004 110.067 51.382 110.067 51.858C110.067 52.418 109.955 52.866 109.731 53.202C109.507 53.538 109.18 53.7807 108.751 53.93C108.322 54.0793 107.799 54.154 107.183 54.154ZM114.135 54.154C113.361 54.154 112.745 54.0233 112.287 53.762C111.839 53.5007 111.517 53.104 111.321 52.572C111.125 52.04 111.027 51.3727 111.027 50.57C111.027 49.702 111.149 48.9927 111.391 48.442C111.643 47.8913 112.007 47.4853 112.483 47.224C112.959 46.9533 113.547 46.818 114.247 46.818C115.283 46.818 116.063 47.0793 116.585 47.602C117.117 48.1247 117.383 48.9507 117.383 50.08L117.299 51.116H112.903C112.913 51.6387 113.02 52.0307 113.225 52.292C113.431 52.5533 113.785 52.684 114.289 52.684C114.579 52.684 114.896 52.6793 115.241 52.67C115.587 52.6513 115.927 52.6327 116.263 52.614C116.609 52.5953 116.903 52.5767 117.145 52.558L117.187 53.86C116.954 53.8973 116.66 53.9393 116.305 53.986C115.951 54.0327 115.582 54.07 115.199 54.098C114.826 54.1353 114.471 54.154 114.135 54.154ZM112.903 49.926H115.521C115.521 49.2913 115.419 48.848 115.213 48.596C115.017 48.344 114.695 48.218 114.247 48.218C113.949 48.218 113.701 48.274 113.505 48.386C113.309 48.498 113.16 48.68 113.057 48.932C112.955 49.184 112.903 49.5153 112.903 49.926Z" fill="#475569"/>
<path d="M18.472 71V62.72H20.308L23.368 69.932H23.596V62.72H24.652V71H22.852L19.756 63.776H19.528V71H18.472ZM28.5742 71.12C27.9662 71.12 27.4862 71.004 27.1342 70.772C26.7822 70.54 26.5262 70.196 26.3662 69.74C26.2142 69.284 26.1382 68.716 26.1382 68.036C26.1382 67.284 26.2422 66.676 26.4502 66.212C26.6582 65.748 26.9502 65.412 27.3262 65.204C27.7102 64.988 28.1662 64.88 28.6942 64.88C29.5102 64.88 30.1222 65.104 30.5302 65.552C30.9462 65.992 31.1542 66.7 31.1542 67.676L31.1062 68.42H27.1822C27.1902 69.012 27.3022 69.464 27.5182 69.776C27.7342 70.08 28.1262 70.232 28.6942 70.232C28.9182 70.232 29.1662 70.228 29.4382 70.22C29.7102 70.204 29.9782 70.188 30.2422 70.172C30.5142 70.156 30.7422 70.14 30.9262 70.124L30.9502 70.916C30.7582 70.948 30.5222 70.98 30.2422 71.012C29.9622 71.044 29.6742 71.068 29.3782 71.084C29.0902 71.108 28.8222 71.12 28.5742 71.12ZM27.1822 67.616H30.1222C30.1222 66.912 30.0102 66.42 29.7862 66.14C29.5622 65.852 29.1982 65.708 28.6942 65.708C28.3662 65.708 28.0902 65.772 27.8662 65.9C27.6502 66.028 27.4822 66.232 27.3622 66.512C27.2422 66.792 27.1822 67.16 27.1822 67.616ZM33.3494 71L31.9694 65H33.0134L34.1294 70.124H34.3334L35.6774 65.12H36.7214L38.0774 70.124H38.2814L39.3974 65H40.4294L39.0494 71H37.3814L36.1934 66.464L35.0054 71H33.3494ZM47.1659 71.12C46.5339 71.12 46.0179 71.032 45.6179 70.856C45.2259 70.672 44.9139 70.4 44.6819 70.04C44.4579 69.68 44.3019 69.236 44.2139 68.708C44.1339 68.18 44.0939 67.568 44.0939 66.872C44.0939 66.168 44.1339 65.548 44.2139 65.012C44.3019 64.476 44.4579 64.028 44.6819 63.668C44.9139 63.308 45.2299 63.04 45.6299 62.864C46.0299 62.68 46.5419 62.588 47.1659 62.588C47.4539 62.588 47.7379 62.604 48.0179 62.636C48.3059 62.66 48.5739 62.696 48.8219 62.744C49.0779 62.784 49.2939 62.824 49.4699 62.864L49.4339 63.74C49.2579 63.708 49.0419 63.676 48.7859 63.644C48.5379 63.612 48.2819 63.588 48.0179 63.572C47.7539 63.548 47.5139 63.536 47.2979 63.536C46.8499 63.536 46.4859 63.6 46.2059 63.728C45.9339 63.856 45.7219 64.06 45.5699 64.34C45.4259 64.612 45.3259 64.96 45.2699 65.384C45.2139 65.8 45.1859 66.296 45.1859 66.872C45.1859 67.44 45.2139 67.936 45.2699 68.36C45.3259 68.776 45.4259 69.12 45.5699 69.392C45.7139 69.656 45.9259 69.856 46.2059 69.992C46.4859 70.12 46.8539 70.184 47.3099 70.184C47.6459 70.184 48.0139 70.164 48.4139 70.124C48.8139 70.076 49.1539 70.028 49.4339 69.98L49.4699 70.868C49.2779 70.908 49.0539 70.948 48.7979 70.988C48.5419 71.028 48.2699 71.06 47.9819 71.084C47.7019 71.108 47.4299 71.12 47.1659 71.12ZM53.0003 71.12C52.3283 71.12 51.8003 71.004 51.4163 70.772C51.0403 70.54 50.7763 70.192 50.6243 69.728C50.4723 69.256 50.3963 68.656 50.3963 67.928C50.3963 67.24 50.4803 66.672 50.6483 66.224C50.8163 65.768 51.0923 65.432 51.4763 65.216C51.8603 64.992 52.3683 64.88 53.0003 64.88C53.6403 64.88 54.1523 64.992 54.5363 65.216C54.9203 65.432 55.1963 65.768 55.3643 66.224C55.5323 66.672 55.6163 67.24 55.6163 67.928C55.6163 68.656 55.5363 69.256 55.3763 69.728C55.2243 70.192 54.9603 70.54 54.5843 70.772C54.2083 71.004 53.6803 71.12 53.0003 71.12ZM53.0003 70.244C53.4483 70.244 53.7843 70.168 54.0083 70.016C54.2323 69.856 54.3803 69.604 54.4523 69.26C54.5243 68.916 54.5603 68.472 54.5603 67.928C54.5603 67.392 54.5123 66.964 54.4163 66.644C54.3283 66.324 54.1723 66.096 53.9483 65.96C53.7243 65.824 53.4083 65.756 53.0003 65.756C52.6003 65.756 52.2843 65.824 52.0523 65.96C51.8283 66.096 51.6683 66.324 51.5723 66.644C51.4843 66.964 51.4403 67.392 51.4403 67.928C51.4403 68.472 51.4763 68.916 51.5483 69.26C51.6203 69.604 51.7683 69.856 51.9923 70.016C52.2163 70.168 52.5523 70.244 53.0003 70.244ZM57.0953 71V62.408H58.1153V71H57.0953ZM59.9195 71V62.408H60.9395V71H59.9195ZM64.8438 71.12C64.2358 71.12 63.7558 71.004 63.4038 70.772C63.0518 70.54 62.7958 70.196 62.6357 69.74C62.4838 69.284 62.4078 68.716 62.4078 68.036C62.4078 67.284 62.5118 66.676 62.7198 66.212C62.9278 65.748 63.2198 65.412 63.5958 65.204C63.9798 64.988 64.4358 64.88 64.9638 64.88C65.7798 64.88 66.3918 65.104 66.7998 65.552C67.2158 65.992 67.4238 66.7 67.4238 67.676L67.3758 68.42H63.4518C63.4598 69.012 63.5718 69.464 63.7878 69.776C64.0038 70.08 64.3958 70.232 64.9638 70.232C65.1878 70.232 65.4358 70.228 65.7078 70.22C65.9798 70.204 66.2478 70.188 66.5118 70.172C66.7838 70.156 67.0118 70.14 67.1958 70.124L67.2198 70.916C67.0278 70.948 66.7918 70.98 66.5118 71.012C66.2318 71.044 65.9438 71.068 65.6478 71.084C65.3598 71.108 65.0918 71.12 64.8438 71.12ZM63.4518 67.616H66.3918C66.3918 66.912 66.2798 66.42 66.0558 66.14C65.8318 65.852 65.4678 65.708 64.9638 65.708C64.6358 65.708 64.3598 65.772 64.1358 65.9C63.9198 66.028 63.7518 66.232 63.6318 66.512C63.5118 66.792 63.4518 67.16 63.4518 67.616ZM71.0098 71.12C70.3698 71.12 69.8658 71.016 69.4978 70.808C69.1378 70.592 68.8818 70.248 68.7298 69.776C68.5858 69.304 68.5138 68.68 68.5138 67.904C68.5138 67.176 68.5978 66.588 68.7658 66.14C68.9338 65.692 69.2018 65.372 69.5698 65.18C69.9458 64.98 70.4298 64.88 71.0218 64.88C71.1658 64.88 71.3378 64.892 71.5378 64.916C71.7378 64.932 71.9418 64.956 72.1498 64.988C72.3658 65.012 72.5498 65.036 72.7018 65.06L72.6658 65.9C72.5218 65.884 72.3618 65.868 72.1858 65.852C72.0098 65.836 71.8338 65.824 71.6578 65.816C71.4898 65.8 71.3498 65.792 71.2378 65.792C70.7978 65.792 70.4538 65.864 70.2058 66.008C69.9658 66.144 69.7978 66.364 69.7018 66.668C69.6058 66.972 69.5578 67.384 69.5578 67.904C69.5578 68.472 69.5978 68.924 69.6778 69.26C69.7658 69.596 69.9298 69.84 70.1698 69.992C70.4098 70.136 70.7658 70.208 71.2378 70.208C71.3498 70.208 71.4938 70.204 71.6698 70.196C71.8458 70.18 72.0218 70.164 72.1978 70.148C72.3818 70.132 72.5458 70.12 72.6898 70.112L72.7138 70.94C72.5538 70.972 72.3658 71 72.1498 71.024C71.9418 71.048 71.7338 71.068 71.5258 71.084C71.3258 71.108 71.1538 71.12 71.0098 71.12ZM76.0075 71.132C75.5915 71.132 75.2595 71.068 75.0115 70.94C74.7635 70.812 74.5835 70.592 74.4715 70.28C74.3675 69.96 74.3155 69.512 74.3155 68.936V65.876H73.4875V65H74.3155V63.2H75.3355V65H77.1715V65.876H75.3355V68.648C75.3355 69.056 75.3515 69.376 75.3835 69.608C75.4235 69.832 75.4995 69.992 75.6115 70.088C75.7315 70.176 75.9155 70.22 76.1635 70.22C76.2435 70.22 76.3435 70.216 76.4635 70.208C76.5915 70.2 76.7195 70.192 76.8475 70.184C76.9835 70.168 77.0995 70.156 77.1955 70.148L77.2555 71C77.1435 71.016 77.0075 71.032 76.8475 71.048C76.6955 71.072 76.5435 71.092 76.3915 71.108C76.2395 71.124 76.1115 71.132 76.0075 71.132ZM78.2463 71V65H79.2543V71H78.2463ZM78.2463 63.728V62.612H79.2543V63.728H78.2463ZM83.2698 71.12C82.5978 71.12 82.0698 71.004 81.6858 70.772C81.3098 70.54 81.0458 70.192 80.8938 69.728C80.7418 69.256 80.6658 68.656 80.6658 67.928C80.6658 67.24 80.7498 66.672 80.9178 66.224C81.0858 65.768 81.3618 65.432 81.7458 65.216C82.1298 64.992 82.6378 64.88 83.2698 64.88C83.9098 64.88 84.4218 64.992 84.8058 65.216C85.1898 65.432 85.4658 65.768 85.6338 66.224C85.8018 66.672 85.8858 67.24 85.8858 67.928C85.8858 68.656 85.8058 69.256 85.6458 69.728C85.4938 70.192 85.2298 70.54 84.8538 70.772C84.4778 71.004 83.9498 71.12 83.2698 71.12ZM83.2698 70.244C83.7178 70.244 84.0538 70.168 84.2778 70.016C84.5018 69.856 84.6498 69.604 84.7218 69.26C84.7938 68.916 84.8298 68.472 84.8298 67.928C84.8298 67.392 84.7818 66.964 84.6858 66.644C84.5978 66.324 84.4418 66.096 84.2178 65.96C83.9938 65.824 83.6778 65.756 83.2698 65.756C82.8698 65.756 82.5538 65.824 82.3218 65.96C82.0978 66.096 81.9378 66.324 81.8418 66.644C81.7538 66.964 81.7098 67.392 81.7098 67.928C81.7098 68.472 81.7458 68.916 81.8178 69.26C81.8898 69.604 82.0378 69.856 82.2618 70.016C82.4858 70.168 82.8218 70.244 83.2698 70.244ZM87.3048 71V65H88.3128V65.408C88.4488 65.328 88.6168 65.248 88.8168 65.168C89.0248 65.088 89.2408 65.02 89.4648 64.964C89.6968 64.908 89.9168 64.88 90.1248 64.88C90.5408 64.88 90.8808 64.936 91.1448 65.048C91.4168 65.152 91.6248 65.324 91.7688 65.564C91.9208 65.796 92.0248 66.1 92.0808 66.476C92.1448 66.844 92.1768 67.296 92.1768 67.832V71H91.1568V67.868C91.1568 67.364 91.1248 66.96 91.0608 66.656C91.0048 66.352 90.8888 66.132 90.7128 65.996C90.5448 65.86 90.2808 65.792 89.9208 65.792C89.7288 65.792 89.5288 65.816 89.3208 65.864C89.1208 65.904 88.9328 65.956 88.7568 66.02C88.5808 66.084 88.4328 66.148 88.3128 66.212V71H87.3048Z" fill="#94A3B8"/>
</g>
<defs>
<clipPath id="clip0_426_2809">
<path d="M0.5 12.8C0.5 8.31958 0.5 6.07937 1.37195 4.36808C2.13893 2.86278 3.36278 1.63893 4.86808 0.871948C6.57937 0 8.81958 0 13.3 0H209.2C213.68 0 215.921 0 217.632 0.871948C219.137 1.63893 220.361 2.86278 221.128 4.36808C222 6.07937 222 8.31958 222 12.8V109.2C222 113.68 222 115.921 221.128 117.632C220.361 119.137 219.137 120.361 217.632 121.128C215.921 122 213.68 122 209.2 122H13.3C8.81958 122 6.57937 122 4.86808 121.128C3.36278 120.361 2.13893 119.137 1.37195 117.632C0.5 115.921 0.5 113.68 0.5 109.2V12.8Z" fill="white"/>
</clipPath>
</defs>
</svg>
