<svg width="24" height="25" viewBox="0 0 24 25" fill="none" xmlns="http://www.w3.org/2000/svg">
<path d="M17 22.6041H7C2.59 22.6041 1.25 21.2641 1.25 16.8541V8.85413C1.25 4.44413 2.59 3.10413 7 3.10413H17C21.41 3.10413 22.75 4.44413 22.75 8.85413V16.8541C22.75 21.2641 21.41 22.6041 17 22.6041ZM7 4.60413C3.42 4.60413 2.75 5.28413 2.75 8.85413V16.8541C2.75 20.4241 3.42 21.1041 7 21.1041H17C20.58 21.1041 21.25 20.4241 21.25 16.8541V8.85413C21.25 5.28413 20.58 4.60413 17 4.60413H7Z" fill="#EFF6FF"/>
<path d="M19 9.60413H14C13.59 9.60413 13.25 9.26413 13.25 8.85413C13.25 8.44413 13.59 8.10413 14 8.10413H19C19.41 8.10413 19.75 8.44413 19.75 8.85413C19.75 9.26413 19.41 9.60413 19 9.60413Z" fill="#EFF6FF"/>
<path d="M19 13.6041H15C14.59 13.6041 14.25 13.2641 14.25 12.8541C14.25 12.4441 14.59 12.1041 15 12.1041H19C19.41 12.1041 19.75 12.4441 19.75 12.8541C19.75 13.2641 19.41 13.6041 19 13.6041Z" fill="#EFF6FF"/>
<path d="M19 17.6041H17C16.59 17.6041 16.25 17.2641 16.25 16.8541C16.25 16.4441 16.59 16.1041 17 16.1041H19C19.41 16.1041 19.75 16.4441 19.75 16.8541C19.75 17.2641 19.41 17.6041 19 17.6041Z" fill="#EFF6FF"/>
<path d="M8.49994 12.8941C7.08994 12.8941 5.93994 11.7441 5.93994 10.3341C5.93994 8.92411 7.08994 7.77411 8.49994 7.77411C9.90994 7.77411 11.0599 8.92411 11.0599 10.3341C11.0599 11.7441 9.90994 12.8941 8.49994 12.8941ZM8.49994 9.27411C7.91994 9.27411 7.43994 9.75411 7.43994 10.3341C7.43994 10.9141 7.91994 11.3941 8.49994 11.3941C9.07994 11.3941 9.55994 10.9141 9.55994 10.3341C9.55994 9.75411 9.07994 9.27411 8.49994 9.27411Z" fill="#EFF6FF"/>
<path d="M11.9999 17.9341C11.6199 17.9341 11.2899 17.6441 11.2499 17.2541C11.1399 16.1741 10.2699 15.3041 9.17991 15.2041C8.71991 15.1641 8.25991 15.1641 7.79991 15.2041C6.70991 15.3041 5.83991 16.1641 5.72991 17.2541C5.68991 17.6641 5.31991 17.9741 4.90991 17.9241C4.49991 17.8841 4.19991 17.5141 4.23991 17.1041C4.41991 15.3041 5.84991 13.8741 7.65991 13.7141C8.20991 13.6641 8.76991 13.6641 9.31991 13.7141C11.1199 13.8841 12.5599 15.3141 12.7399 17.1041C12.7799 17.5141 12.4799 17.8841 12.0699 17.9241C12.0499 17.9341 12.0199 17.9341 11.9999 17.9341Z" fill="#EFF6FF"/>
</svg>
