<svg width="24" height="25" viewBox="0 0 24 25" fill="none" xmlns="http://www.w3.org/2000/svg">
<path d="M15 23.6041H9C3.57 23.6041 1.25 21.2841 1.25 15.8541V9.85413C1.25 4.42413 3.57 2.10413 9 2.10413H15C20.43 2.10413 22.75 4.42413 22.75 9.85413V15.8541C22.75 21.2841 20.43 23.6041 15 23.6041ZM9 3.60413C4.39 3.60413 2.75 5.24413 2.75 9.85413V15.8541C2.75 20.4641 4.39 22.1041 9 22.1041H15C19.61 22.1041 21.25 20.4641 21.25 15.8541V9.85413C21.25 5.24413 19.61 3.60413 15 3.60413H9Z" fill="#EFF6FF"/>
<path d="M8.81023 19.1041C8.74023 19.1041 8.66023 19.1041 8.59023 19.0841L7.40023 18.9241C6.68023 18.8241 6.05023 18.2041 5.94023 17.4641L5.77023 16.2541C5.70023 15.7741 5.90023 15.1641 6.25023 14.8041L8.53023 12.5241C8.19023 10.9041 8.68023 9.22413 9.87023 8.04413C11.7802 6.13413 14.9002 6.13413 16.8102 8.04413C17.7402 8.97413 18.2502 10.2041 18.2502 11.5141C18.2502 12.8241 17.7402 14.0641 16.8102 14.9841C15.6202 16.1641 13.9402 16.6541 12.3302 16.3141L10.0402 18.5941C9.75023 18.9041 9.26023 19.1041 8.81023 19.1041ZM13.3402 8.10413C12.4702 8.10413 11.5902 8.43413 10.9302 9.10413C10.0302 10.0041 9.71023 11.3141 10.0802 12.5341C10.1602 12.8041 10.0902 13.0841 9.89023 13.2841L7.31023 15.8641C7.29023 15.8941 7.25023 16.0041 7.25023 16.0441L7.42023 17.2441C7.43023 17.3041 7.54023 17.4141 7.60023 17.4241L8.80023 17.5941C8.85023 17.5841 8.95023 17.5641 8.98023 17.5341L11.5702 14.9441C11.7702 14.7441 12.0602 14.6841 12.3202 14.7641C13.5302 15.1441 14.8402 14.8241 15.7402 13.9241C16.3802 13.2841 16.7402 12.4241 16.7402 11.5141C16.7402 10.6041 16.3902 9.74413 15.7402 9.10413C15.0902 8.44413 14.2102 8.10413 13.3402 8.10413Z" fill="#EFF6FF"/>
<path d="M10.4498 17.8841C10.2598 17.8841 10.0698 17.8141 9.91978 17.6641L9.05979 16.8041C8.76979 16.5141 8.76979 16.0341 9.05979 15.7441C9.34979 15.4541 9.82978 15.4541 10.1198 15.7441L10.9798 16.6041C11.2698 16.8941 11.2698 17.3741 10.9798 17.6641C10.8398 17.8141 10.6498 17.8841 10.4498 17.8841Z" fill="#EFF6FF"/>
<path d="M13.3801 12.6541C13.2401 12.6541 13.1101 12.6341 12.9901 12.5841C12.8701 12.5341 12.7601 12.4541 12.6701 12.3641C12.4801 12.1741 12.3701 11.9241 12.3701 11.6541C12.3701 11.3941 12.4801 11.1341 12.6701 10.9541C12.9001 10.7141 13.2501 10.6041 13.5701 10.6741C13.6301 10.6941 13.7001 10.7041 13.7601 10.7341C13.8201 10.7641 13.8801 10.7941 13.9301 10.8241C13.9801 10.8641 14.0401 10.9041 14.0801 10.9541C14.2701 11.1341 14.3801 11.3941 14.3801 11.6541C14.3801 11.7941 14.3501 11.9141 14.3001 12.0441C14.2501 12.1641 14.1801 12.2741 14.0801 12.3641C13.8901 12.5541 13.6401 12.6541 13.3801 12.6541Z" fill="#EFF6FF"/>
</svg>
