<svg width="141" height="122" viewBox="0 0 141 122" fill="none" xmlns="http://www.w3.org/2000/svg">
<g id="Logo Icon">
<path d="M26.5727 100.964L1.08473 159.425C-0.927807 164.034 4.06883 168.576 8.66802 166.33L43.0641 149.522L29.0899 98.3009C27.9985 98.858 27.0963 99.77 26.5727 100.964Z" fill="#4169DE"/>
<path d="M80.2106 121.848L34.2503 98.3067C32.5595 97.4436 30.6416 97.511 29.0833 98.3067L43.0575 149.527L80.116 131.421C84.141 129.45 84.1978 123.893 80.2106 121.848Z" fill="#4169DE"/>
<path d="M202.099 160.166L179.626 114.197L160.902 151.535L194.705 167.321C199.405 169.519 204.338 164.751 202.099 160.166Z" fill="#122558"/>
<path d="M179.626 114.197L115.528 130.344L160.902 151.535L179.626 114.197Z" fill="#182D69"/>
<path d="M179.626 114.197C179.103 113.126 178.226 112.25 177.134 111.712L135.887 91.3102L115.522 130.344L179.626 114.197Z" fill="#1D3578"/>
<path d="M96.7529 71.956C95.6236 71.3929 94.7719 70.5115 94.2609 69.4709L115.516 130.344L135.881 91.3107L96.7529 71.956Z" fill="#223B85"/>
<path d="M94.2673 69.4709L115.522 130.344L73.7508 110.837L94.2673 69.4709Z" fill="#25408F"/>
<path d="M36.3512 93.3673C35.1525 92.8042 34.2567 91.8799 33.733 90.7904L94.2732 69.4709L73.7567 110.837L36.3512 93.3673Z" fill="#29469A"/>
<path d="M33.733 90.7904C33.0643 89.4009 33.0141 87.7417 33.7333 86.2421L51.026 50.2015L94.2735 69.4644L33.733 90.7904Z" fill="#2E4EAB"/>
<path d="M69.3912 11.9206L94.2673 69.4709L51.0197 50.2076L69.3912 11.9206Z" fill="#3253B3"/>
<path d="M94.2672 64.8551C93.6048 66.214 93.5732 67.7075 94.0716 69.0174L94.2673 69.4709C94.1979 69.324 94.1284 69.1704 94.0716 69.0174L69.3912 11.9206L110.614 31.4344L94.2672 64.8551Z" fill="#365AC0"/>
<path d="M69.3912 11.9206L126.039 -0.119316L110.607 31.4284L69.3912 11.9206Z" fill="#395EC8"/>
<path d="M69.3912 11.9206L126.039 -0.119316L84.7534 -20.1039L69.3912 11.9206Z" fill="#3D63D3"/>
<path d="M125.95 -4.91189L105.56 -42.9785C103.44 -46.9326 97.5731 -46.8102 95.6299 -42.7703L84.7534 -20.1104L126.039 -0.125259C126.79 -1.64327 126.752 -3.41224 125.95 -4.91189Z" fill="#4068DC"/>
</g>
</svg>
