<svg width="20" height="20" viewBox="0 0 20 20" fill="none" xmlns="http://www.w3.org/2000/svg">
<path d="M6.66675 4.79169C6.32508 4.79169 6.04175 4.50835 6.04175 4.16669V1.66669C6.04175 1.32502 6.32508 1.04169 6.66675 1.04169C7.00841 1.04169 7.29175 1.32502 7.29175 1.66669V4.16669C7.29175 4.50835 7.00841 4.79169 6.66675 4.79169Z" fill="#292D32"/>
<path d="M13.3333 4.79169C12.9916 4.79169 12.7083 4.50835 12.7083 4.16669V1.66669C12.7083 1.32502 12.9916 1.04169 13.3333 1.04169C13.6749 1.04169 13.9583 1.32502 13.9583 1.66669V4.16669C13.9583 4.50835 13.6749 4.79169 13.3333 4.79169Z" fill="#292D32"/>
<path d="M13.3333 18.9584H6.66667C3.625 18.9584 1.875 17.2084 1.875 14.1667V7.08335C1.875 4.04169 3.625 2.29169 6.66667 2.29169H13.3333C16.375 2.29169 18.125 4.04169 18.125 7.08335V14.1667C18.125 17.2084 16.375 18.9584 13.3333 18.9584ZM6.66667 3.54169C4.28333 3.54169 3.125 4.70002 3.125 7.08335V14.1667C3.125 16.55 4.28333 17.7084 6.66667 17.7084H13.3333C15.7167 17.7084 16.875 16.55 16.875 14.1667V7.08335C16.875 4.70002 15.7167 3.54169 13.3333 3.54169H6.66667Z" fill="#292D32"/>
<path d="M13.3334 9.79169H6.66675C6.32508 9.79169 6.04175 9.50835 6.04175 9.16669C6.04175 8.82502 6.32508 8.54169 6.66675 8.54169H13.3334C13.6751 8.54169 13.9584 8.82502 13.9584 9.16669C13.9584 9.50835 13.6751 9.79169 13.3334 9.79169Z" fill="#292D32"/>
<path d="M10.0001 13.9583H6.66675C6.32508 13.9583 6.04175 13.675 6.04175 13.3333C6.04175 12.9916 6.32508 12.7083 6.66675 12.7083H10.0001C10.3417 12.7083 10.6251 12.9916 10.6251 13.3333C10.6251 13.675 10.3417 13.9583 10.0001 13.9583Z" fill="#292D32"/>
</svg>
