<svg width="20" height="20" viewBox="0 0 20 20" fill="none" xmlns="http://www.w3.org/2000/svg">
<path fill-rule="evenodd" clip-rule="evenodd" d="M10.0037 1.66667C7.55872 1.66667 5.57664 3.6572 5.57664 6.11265C5.57664 8.56809 7.55872 10.5586 10.0037 10.5586C12.4488 10.5586 14.4308 8.56809 14.4308 6.11265C14.4308 3.6572 12.4488 1.66667 10.0037 1.66667ZM10.0037 2.87306C11.7853 2.87306 13.2296 4.32347 13.2296 6.11265C13.2296 7.90182 11.7853 9.35223 10.0037 9.35223C8.22216 9.35223 6.77791 7.90182 6.77791 6.11265C6.77791 4.32347 8.22216 2.87306 10.0037 2.87306ZM8.19187 12.3507C7.54377 12.3957 6.88867 12.4882 6.24249 12.6267C4.99531 12.8836 3.99754 13.3969 3.57286 14.2499C3.41269 14.5835 3.33215 14.9407 3.33351 15.3023C3.33303 15.6613 3.41291 16.0189 3.56734 16.3461C3.97512 17.1892 4.85667 17.6664 6.04703 17.9309L6.26027 17.9754C6.8889 18.1172 7.5442 18.2127 8.20388 18.2575C8.26007 18.274 8.39398 18.2893 8.54013 18.2968L8.66034 18.3013C8.72216 18.3027 8.79231 18.3031 8.89683 18.3031C9.84503 18.3552 10.828 18.3401 11.8064 18.2568C12.3278 18.2211 12.8527 18.1529 13.3733 18.053L13.7627 17.9721C15.0481 17.7186 16.0106 17.2363 16.4323 16.347C16.745 15.6868 16.745 14.9206 16.4325 14.2606C16.0118 13.3735 15.0616 12.8953 13.753 12.6257C13.2396 12.5161 12.7178 12.435 12.1924 12.3832L11.8082 12.3507C10.6051 12.2446 9.39501 12.2446 8.19187 12.3507ZM11.7031 13.5525L11.7137 13.5533C12.3167 13.5958 12.9161 13.6804 13.5074 13.8067C14.4794 14.0069 15.1391 14.3389 15.3477 14.779C15.5049 15.1109 15.5049 15.4965 15.3476 15.8287C15.1526 16.2399 14.5602 16.5576 13.7039 16.7518L13.5164 16.7915C12.9135 16.926 12.3161 17.0127 11.7148 17.0539C10.7818 17.1333 9.85428 17.1476 8.92913 17.0976L8.60113 17.0919C8.51008 17.0873 8.43334 17.0785 8.36222 17.0642C7.7991 17.0217 7.29238 16.9545 6.80038 16.857L6.50662 16.7948C5.53158 16.6037 4.86612 16.2703 4.65036 15.8241C4.57486 15.6641 4.53453 15.4836 4.53477 15.3008C4.5341 15.119 4.57389 14.9425 4.65115 14.7816C4.86093 14.3603 5.56615 13.9975 6.48854 13.8075C7.0841 13.6799 7.68317 13.5953 8.28594 13.5534C9.43018 13.4525 10.5699 13.4525 11.7031 13.5525Z" fill="#142452"/>
</svg>
