<svg width="9" height="5" viewBox="0 0 9 5" fill="none" xmlns="http://www.w3.org/2000/svg">
<path d="M4.79871 0.0387015C4.99756 0.0388766 5.18822 0.118041 5.32874 0.258733L8.79871 3.73871C8.93119 3.88089 9.00331 4.06895 8.99988 4.26325C8.99645 4.45755 8.91769 4.64293 8.78028 4.78034C8.64287 4.91775 8.45749 4.99645 8.26319 4.99988C8.06889 5.00331 7.88083 4.93119 7.73865 4.79871L4.79871 1.79871L1.85877 4.79871C1.71659 4.93119 1.52853 5.00331 1.33423 4.99988C1.13993 4.99645 0.954556 4.91775 0.817143 4.78034C0.67973 4.64293 0.600967 4.45755 0.597539 4.26325C0.594111 4.06895 0.666231 3.88089 0.798711 3.73871L4.26868 0.248724C4.41082 0.111691 4.60129 0.0362118 4.79871 0.0387015V0.0387015Z" fill="#142452"/>
</svg>
