<svg width="18" height="18" viewBox="0 0 18 18" fill="none" xmlns="http://www.w3.org/2000/svg">
<g id="vuesax/outline/text">
<g id="text">
<path id="Vector" d="M15.9974 5.93999C15.6899 5.93999 15.4349 5.68499 15.4349 5.37749V4.01249C15.4349 3.46499 14.9924 3.02249 14.4449 3.02249H3.55494C3.00744 3.02249 2.56494 3.46499 2.56494 4.01249V5.38499C2.56494 5.69249 2.30994 5.94749 2.00244 5.94749C1.69494 5.94749 1.43994 5.69249 1.43994 5.37749V4.01249C1.43994 2.84249 2.39244 1.89749 3.55494 1.89749H14.4449C15.6149 1.89749 16.5599 2.84999 16.5599 4.01249V5.38499C16.5599 5.69249 16.3124 5.93999 15.9974 5.93999Z" fill="#94A3B8"/>
<path id="Vector_2" d="M9 16.1025C8.6925 16.1025 8.4375 15.8475 8.4375 15.54V3.08249C8.4375 2.77499 8.6925 2.51999 9 2.51999C9.3075 2.51999 9.5625 2.77499 9.5625 3.08249V15.54C9.5625 15.855 9.3075 16.1025 9 16.1025Z" fill="#94A3B8"/>
<path id="Vector_3" d="M11.9549 16.1025H6.04492C5.73742 16.1025 5.48242 15.8475 5.48242 15.54C5.48242 15.2325 5.73742 14.9775 6.04492 14.9775H11.9549C12.2624 14.9775 12.5174 15.2325 12.5174 15.54C12.5174 15.8475 12.2624 16.1025 11.9549 16.1025Z" fill="#94A3B8"/>
</g>
</g>
</svg>
