<svg width="24" height="25" viewBox="0 0 24 25" fill="none" xmlns="http://www.w3.org/2000/svg">
<path d="M9.15957 12.4741C9.12957 12.4741 9.10957 12.4741 9.07957 12.4741C9.02957 12.4641 8.95957 12.4641 8.89957 12.4741C5.99957 12.3841 3.80957 10.1041 3.80957 7.2941C3.80957 4.4341 6.13957 2.1041 8.99957 2.1041C11.8596 2.1041 14.1896 4.4341 14.1896 7.2941C14.1796 10.1041 11.9796 12.3841 9.18957 12.4741C9.17957 12.4741 9.16957 12.4741 9.15957 12.4741ZM8.99957 3.6041C6.96957 3.6041 5.30957 5.2641 5.30957 7.2941C5.30957 9.2941 6.86957 10.9041 8.85957 10.9741C8.91957 10.9641 9.04957 10.9641 9.17957 10.9741C11.1396 10.8841 12.6796 9.2741 12.6896 7.2941C12.6896 5.2641 11.0296 3.6041 8.99957 3.6041Z" fill="#EFF6FF"/>
<path d="M16.5394 12.6041C16.5094 12.6041 16.4794 12.6041 16.4494 12.5941C16.0394 12.6341 15.6194 12.3441 15.5794 11.9341C15.5394 11.5241 15.7894 11.1541 16.1994 11.1041C16.3194 11.0941 16.4494 11.0941 16.5594 11.0941C18.0194 11.0141 19.1594 9.8141 19.1594 8.3441C19.1594 6.8241 17.9294 5.5941 16.4094 5.5941C15.9994 5.6041 15.6594 5.2641 15.6594 4.8541C15.6594 4.4441 15.9994 4.1041 16.4094 4.1041C18.7494 4.1041 20.6594 6.0141 20.6594 8.3541C20.6594 10.6541 18.8594 12.5141 16.5694 12.6041C16.5594 12.6041 16.5494 12.6041 16.5394 12.6041Z" fill="#EFF6FF"/>
<path d="M9.16961 23.4041C7.20961 23.4041 5.23961 22.9041 3.74961 21.9041C2.35961 20.9841 1.59961 19.7241 1.59961 18.3541C1.59961 16.9841 2.35961 15.7141 3.74961 14.7841C6.74961 12.7941 11.6096 12.7941 14.5896 14.7841C15.9696 15.7041 16.7396 16.9641 16.7396 18.3341C16.7396 19.7041 15.9796 20.9741 14.5896 21.9041C13.0896 22.9041 11.1296 23.4041 9.16961 23.4041ZM4.57961 16.0441C3.61961 16.6841 3.09961 17.5041 3.09961 18.3641C3.09961 19.2141 3.62961 20.0341 4.57961 20.6641C7.06961 22.3341 11.2696 22.3341 13.7596 20.6641C14.7196 20.0241 15.2396 19.2041 15.2396 18.3441C15.2396 17.4941 14.7096 16.6741 13.7596 16.0441C11.2696 14.3841 7.06961 14.3841 4.57961 16.0441Z" fill="#EFF6FF"/>
<path d="M18.3397 21.6041C17.9897 21.6041 17.6797 21.3641 17.6097 21.0041C17.5297 20.5941 17.7897 20.2041 18.1897 20.1141C18.8197 19.9841 19.3997 19.7341 19.8497 19.3841C20.4197 18.9541 20.7297 18.4141 20.7297 17.8441C20.7297 17.2741 20.4197 16.7341 19.8597 16.3141C19.4197 15.9741 18.8697 15.7341 18.2197 15.5841C17.8197 15.4941 17.5597 15.0941 17.6497 14.6841C17.7397 14.2841 18.1397 14.0241 18.5497 14.1141C19.4097 14.3041 20.1597 14.6441 20.7697 15.1141C21.6997 15.8141 22.2297 16.8041 22.2297 17.8441C22.2297 18.8841 21.6897 19.8741 20.7597 20.5841C20.1397 21.0641 19.3597 21.4141 18.4997 21.5841C18.4397 21.6041 18.3897 21.6041 18.3397 21.6041Z" fill="#EFF6FF"/>
</svg>
